<mxfile host="Electron" modified="2020-04-30T07:37:43.125Z" agent="Mozilla/5.0 (X11; Linux x86_64) AppleWebKit/537.36 (KHTML, like Gecko) draw.io/12.3.2 Chrome/78.0.3904.113 Electron/7.1.2 Safari/537.36" etag="-QmD6gg_71TUCdIzDxYF" version="12.3.2" type="device" pages="1">
  <diagram id="8PeVI2haR87YYxIaS9eZ" name="Page-1">
    <mxGraphModel dx="784" dy="484" grid="1" gridSize="10" guides="0" tooltips="1" connect="1" arrows="1" fold="1" page="1" pageScale="1" pageWidth="827" pageHeight="1169" math="0" shadow="0">
      <root>
        <mxCell id="0"/>
        <mxCell id="1" parent="0"/>
        <mxCell id="G4Y1DqEBPkfALhd_MtD5-5" style="edgeStyle=orthogonalEdgeStyle;rounded=0;orthogonalLoop=1;jettySize=auto;html=1;strokeWidth=2;fillColor=#f5f5f5;strokeColor=#666666;" parent="1" source="G4Y1DqEBPkfALhd_MtD5-1" target="G4Y1DqEBPkfALhd_MtD5-2" edge="1">
          <mxGeometry relative="1" as="geometry"/>
        </mxCell>
        <mxCell id="G4Y1DqEBPkfALhd_MtD5-22" value="CPUArchState *Env" style="edgeStyle=orthogonalEdgeStyle;rounded=0;orthogonalLoop=1;jettySize=auto;html=1;strokeWidth=2;fillColor=#dae8fc;strokeColor=#6c8ebf;" parent="1" source="G4Y1DqEBPkfALhd_MtD5-1" target="G4Y1DqEBPkfALhd_MtD5-21" edge="1">
          <mxGeometry x="-0.3125" relative="1" as="geometry">
            <Array as="points">
              <mxPoint x="120" y="120"/>
              <mxPoint x="340" y="120"/>
            </Array>
            <mxPoint as="offset"/>
          </mxGeometry>
        </mxCell>
        <mxCell id="G4Y1DqEBPkfALhd_MtD5-1" value="某个translator" style="rounded=0;whiteSpace=wrap;html=1;fillColor=#f5f5f5;strokeColor=#666666;fontColor=#333333;" parent="1" vertex="1">
          <mxGeometry x="80" y="80" width="80" height="20" as="geometry"/>
        </mxCell>
        <mxCell id="G4Y1DqEBPkfALhd_MtD5-2" value="&lt;b&gt;GenTrace&lt;/b&gt;" style="rounded=0;whiteSpace=wrap;html=1;" parent="1" vertex="1">
          <mxGeometry x="200" y="80" width="60" height="20" as="geometry"/>
        </mxCell>
        <mxCell id="G4Y1DqEBPkfALhd_MtD5-3" value="CPUArchState *env" style="rounded=0;whiteSpace=wrap;html=1;fillColor=#dae8fc;strokeColor=#6c8ebf;" parent="1" vertex="1">
          <mxGeometry x="260" y="80" width="120" height="20" as="geometry"/>
        </mxCell>
        <mxCell id="G4Y1DqEBPkfALhd_MtD5-13" style="edgeStyle=orthogonalEdgeStyle;rounded=0;orthogonalLoop=1;jettySize=auto;html=1;strokeWidth=2;fillColor=#ffe6cc;strokeColor=#d79b00;" parent="1" source="G4Y1DqEBPkfALhd_MtD5-4" target="G4Y1DqEBPkfALhd_MtD5-9" edge="1">
          <mxGeometry relative="1" as="geometry">
            <Array as="points">
              <mxPoint x="440" y="120"/>
              <mxPoint x="400" y="120"/>
            </Array>
          </mxGeometry>
        </mxCell>
        <mxCell id="G4Y1DqEBPkfALhd_MtD5-4" value="OptimizationInfo *Opt" style="rounded=0;whiteSpace=wrap;html=1;fillColor=#ffe6cc;strokeColor=#d79b00;" parent="1" vertex="1">
          <mxGeometry x="380" y="80" width="120" height="20" as="geometry"/>
        </mxCell>
        <mxCell id="G4Y1DqEBPkfALhd_MtD5-6" value="llvm/llvm-translator.cpp" style="text;html=1;align=left;verticalAlign=middle;resizable=0;points=[];;autosize=1;" parent="1" vertex="1">
          <mxGeometry x="200" y="60" width="140" height="20" as="geometry"/>
        </mxCell>
        <mxCell id="G4Y1DqEBPkfALhd_MtD5-7" value="&lt;b&gt;TraceBuilder&lt;/b&gt; Builder" style="rounded=0;whiteSpace=wrap;html=1;fillColor=#f8cecc;strokeColor=#b85450;" parent="1" vertex="1">
          <mxGeometry x="120" y="140" width="120" height="20" as="geometry"/>
        </mxCell>
        <mxCell id="cZP0ndPGZlpRjoG04xzI-11" style="edgeStyle=orthogonalEdgeStyle;rounded=0;orthogonalLoop=1;jettySize=auto;html=1;strokeWidth=2;fillColor=#f5f5f5;strokeColor=#666666;" edge="1" parent="1" source="G4Y1DqEBPkfALhd_MtD5-8" target="cZP0ndPGZlpRjoG04xzI-1">
          <mxGeometry relative="1" as="geometry">
            <Array as="points">
              <mxPoint x="290" y="210"/>
              <mxPoint x="140" y="210"/>
              <mxPoint x="140" y="230"/>
            </Array>
          </mxGeometry>
        </mxCell>
        <mxCell id="cZP0ndPGZlpRjoG04xzI-12" style="edgeStyle=orthogonalEdgeStyle;rounded=0;orthogonalLoop=1;jettySize=auto;html=1;strokeWidth=2;fillColor=#f5f5f5;strokeColor=#666666;" edge="1" parent="1" source="G4Y1DqEBPkfALhd_MtD5-8" target="cZP0ndPGZlpRjoG04xzI-7">
          <mxGeometry relative="1" as="geometry">
            <Array as="points">
              <mxPoint x="290" y="210"/>
              <mxPoint x="140" y="210"/>
              <mxPoint x="140" y="270"/>
            </Array>
          </mxGeometry>
        </mxCell>
        <mxCell id="cZP0ndPGZlpRjoG04xzI-15" style="edgeStyle=orthogonalEdgeStyle;rounded=0;orthogonalLoop=1;jettySize=auto;html=1;strokeWidth=2;fillColor=#f5f5f5;strokeColor=#666666;" edge="1" parent="1" source="G4Y1DqEBPkfALhd_MtD5-8" target="cZP0ndPGZlpRjoG04xzI-10">
          <mxGeometry relative="1" as="geometry">
            <Array as="points">
              <mxPoint x="290" y="210"/>
              <mxPoint x="140" y="210"/>
              <mxPoint x="140" y="470"/>
            </Array>
          </mxGeometry>
        </mxCell>
        <mxCell id="cZP0ndPGZlpRjoG04xzI-16" style="edgeStyle=orthogonalEdgeStyle;rounded=0;orthogonalLoop=1;jettySize=auto;html=1;strokeWidth=2;fillColor=#f5f5f5;strokeColor=#666666;" edge="1" parent="1" source="G4Y1DqEBPkfALhd_MtD5-8" target="cZP0ndPGZlpRjoG04xzI-13">
          <mxGeometry relative="1" as="geometry">
            <Array as="points">
              <mxPoint x="290" y="210"/>
              <mxPoint x="140" y="210"/>
              <mxPoint x="140" y="510"/>
            </Array>
          </mxGeometry>
        </mxCell>
        <mxCell id="G4Y1DqEBPkfALhd_MtD5-8" value="IRFactory *IRF" style="rounded=0;whiteSpace=wrap;html=1;fillColor=#f5f5f5;strokeColor=#666666;fontColor=#333333;" parent="1" vertex="1">
          <mxGeometry x="240" y="140" width="100" height="20" as="geometry"/>
        </mxCell>
        <mxCell id="G4Y1DqEBPkfALhd_MtD5-23" style="edgeStyle=orthogonalEdgeStyle;rounded=0;orthogonalLoop=1;jettySize=auto;html=1;strokeWidth=2;fillColor=#f8cecc;strokeColor=#b85450;" parent="1" source="G4Y1DqEBPkfALhd_MtD5-9" target="G4Y1DqEBPkfALhd_MtD5-20" edge="1">
          <mxGeometry relative="1" as="geometry">
            <Array as="points">
              <mxPoint x="480" y="150"/>
              <mxPoint x="480" y="170"/>
              <mxPoint x="110" y="170"/>
              <mxPoint x="110" y="350"/>
            </Array>
          </mxGeometry>
        </mxCell>
        <mxCell id="G4Y1DqEBPkfALhd_MtD5-28" style="edgeStyle=orthogonalEdgeStyle;rounded=0;orthogonalLoop=1;jettySize=auto;html=1;strokeWidth=2;fillColor=#f8cecc;strokeColor=#b85450;" parent="1" source="G4Y1DqEBPkfALhd_MtD5-9" target="G4Y1DqEBPkfALhd_MtD5-24" edge="1">
          <mxGeometry relative="1" as="geometry">
            <Array as="points">
              <mxPoint x="480" y="150"/>
              <mxPoint x="480" y="170"/>
              <mxPoint x="110" y="170"/>
              <mxPoint x="110" y="390"/>
            </Array>
          </mxGeometry>
        </mxCell>
        <mxCell id="G4Y1DqEBPkfALhd_MtD5-29" style="edgeStyle=orthogonalEdgeStyle;rounded=0;orthogonalLoop=1;jettySize=auto;html=1;strokeWidth=2;fillColor=#f8cecc;strokeColor=#b85450;" parent="1" source="G4Y1DqEBPkfALhd_MtD5-9" target="G4Y1DqEBPkfALhd_MtD5-27" edge="1">
          <mxGeometry relative="1" as="geometry">
            <Array as="points">
              <mxPoint x="480" y="150"/>
              <mxPoint x="480" y="170"/>
              <mxPoint x="110" y="170"/>
              <mxPoint x="110" y="430"/>
            </Array>
          </mxGeometry>
        </mxCell>
        <mxCell id="G4Y1DqEBPkfALhd_MtD5-32" style="edgeStyle=orthogonalEdgeStyle;rounded=0;orthogonalLoop=1;jettySize=auto;html=1;strokeWidth=2;fillColor=#f8cecc;strokeColor=#b85450;" parent="1" source="G4Y1DqEBPkfALhd_MtD5-9" target="G4Y1DqEBPkfALhd_MtD5-31" edge="1">
          <mxGeometry relative="1" as="geometry">
            <mxPoint x="230" y="507.4843618032095" as="targetPoint"/>
            <Array as="points">
              <mxPoint x="480" y="150"/>
              <mxPoint x="480" y="170"/>
              <mxPoint x="110" y="170"/>
              <mxPoint x="110" y="530"/>
              <mxPoint x="240" y="530"/>
            </Array>
          </mxGeometry>
        </mxCell>
        <mxCell id="cZP0ndPGZlpRjoG04xzI-4" value="this" style="edgeStyle=orthogonalEdgeStyle;rounded=0;orthogonalLoop=1;jettySize=auto;html=1;strokeWidth=2;fillColor=#f8cecc;strokeColor=#b85450;" edge="1" parent="1" source="G4Y1DqEBPkfALhd_MtD5-9" target="cZP0ndPGZlpRjoG04xzI-3">
          <mxGeometry x="0.76" relative="1" as="geometry">
            <Array as="points">
              <mxPoint x="480" y="150"/>
              <mxPoint x="480" y="170"/>
              <mxPoint x="320" y="170"/>
            </Array>
            <mxPoint as="offset"/>
          </mxGeometry>
        </mxCell>
        <mxCell id="G4Y1DqEBPkfALhd_MtD5-9" value="OptimizationInfo *Opt" style="rounded=0;whiteSpace=wrap;html=1;fillColor=#ffe6cc;strokeColor=#d79b00;" parent="1" vertex="1">
          <mxGeometry x="340" y="140" width="120" height="20" as="geometry"/>
        </mxCell>
        <mxCell id="G4Y1DqEBPkfALhd_MtD5-12" style="edgeStyle=orthogonalEdgeStyle;rounded=0;orthogonalLoop=1;jettySize=auto;html=1;strokeWidth=2;fillColor=#f5f5f5;strokeColor=#666666;" parent="1" source="G4Y1DqEBPkfALhd_MtD5-10" target="G4Y1DqEBPkfALhd_MtD5-8" edge="1">
          <mxGeometry relative="1" as="geometry">
            <Array as="points">
              <mxPoint x="580" y="110"/>
              <mxPoint x="290" y="110"/>
            </Array>
          </mxGeometry>
        </mxCell>
        <mxCell id="G4Y1DqEBPkfALhd_MtD5-10" value="IRFactory *IF" style="rounded=0;whiteSpace=wrap;html=1;fillColor=#f5f5f5;strokeColor=#666666;fontColor=#333333;" parent="1" vertex="1">
          <mxGeometry x="540" y="80" width="80" height="20" as="geometry"/>
        </mxCell>
        <mxCell id="G4Y1DqEBPkfALhd_MtD5-11" value="&lt;font color=&quot;#999999&quot;&gt;/// 全局变量IF&lt;/font&gt;" style="text;html=1;align=left;verticalAlign=middle;resizable=0;points=[];;autosize=1;" parent="1" vertex="1">
          <mxGeometry x="540" y="60" width="90" height="20" as="geometry"/>
        </mxCell>
        <mxCell id="G4Y1DqEBPkfALhd_MtD5-14" value="llvm/llvm-opc.cpp: 4326~4355" style="text;html=1;align=left;verticalAlign=middle;resizable=0;points=[];;autosize=1;" parent="1" vertex="1">
          <mxGeometry x="120" y="120" width="170" height="20" as="geometry"/>
        </mxCell>
        <mxCell id="G4Y1DqEBPkfALhd_MtD5-18" value="&lt;font color=&quot;#b85450&quot;&gt;&lt;b&gt;for&lt;/b&gt;&lt;/font&gt;" style="rounded=0;whiteSpace=wrap;html=1;" parent="1" vertex="1">
          <mxGeometry x="120" y="300" width="20" height="20" as="geometry"/>
        </mxCell>
        <mxCell id="G4Y1DqEBPkfALhd_MtD5-19" value="each GraphNode" style="rounded=0;whiteSpace=wrap;html=1;dashed=1;" parent="1" vertex="1">
          <mxGeometry x="140" y="300" width="100" height="20" as="geometry"/>
        </mxCell>
        <mxCell id="G4Y1DqEBPkfALhd_MtD5-20" value="&lt;b&gt;ConvertToTCGIR&lt;/b&gt;" style="rounded=0;whiteSpace=wrap;html=1;" parent="1" vertex="1">
          <mxGeometry x="160" y="340" width="120" height="20" as="geometry"/>
        </mxCell>
        <mxCell id="G4Y1DqEBPkfALhd_MtD5-21" value="CPUArchState *env" style="rounded=0;whiteSpace=wrap;html=1;fillColor=#dae8fc;strokeColor=#6c8ebf;" parent="1" vertex="1">
          <mxGeometry x="280" y="340" width="120" height="20" as="geometry"/>
        </mxCell>
        <mxCell id="G4Y1DqEBPkfALhd_MtD5-24" value="&lt;b&gt;ConverToLLVMIR&lt;/b&gt;" style="rounded=0;whiteSpace=wrap;html=1;" parent="1" vertex="1">
          <mxGeometry x="160" y="380" width="120" height="20" as="geometry"/>
        </mxCell>
        <mxCell id="G4Y1DqEBPkfALhd_MtD5-26" value="&lt;font color=&quot;#999999&quot;&gt;/// 应该是QEMU没有缓存TB的TCG&lt;br&gt;/// （只缓存了TB的翻译好的本地码）&lt;/font&gt;" style="text;html=1;align=left;verticalAlign=middle;resizable=0;points=[];;autosize=1;" parent="1" vertex="1">
          <mxGeometry x="400" y="330" width="210" height="30" as="geometry"/>
        </mxCell>
        <mxCell id="G4Y1DqEBPkfALhd_MtD5-27" value="&lt;b&gt;Finalize&lt;/b&gt;" style="rounded=0;whiteSpace=wrap;html=1;" parent="1" vertex="1">
          <mxGeometry x="120" y="420" width="60" height="20" as="geometry"/>
        </mxCell>
        <mxCell id="G4Y1DqEBPkfALhd_MtD5-30" value="&lt;b&gt;Commit&lt;/b&gt;" style="rounded=0;whiteSpace=wrap;html=1;" parent="1" vertex="1">
          <mxGeometry x="120" y="540" width="60" height="20" as="geometry"/>
        </mxCell>
        <mxCell id="G4Y1DqEBPkfALhd_MtD5-31" value="TraceBuilder &amp;amp;Builder" style="rounded=0;whiteSpace=wrap;html=1;fillColor=#f8cecc;strokeColor=#b85450;" parent="1" vertex="1">
          <mxGeometry x="180" y="540" width="140" height="20" as="geometry"/>
        </mxCell>
        <mxCell id="G4Y1DqEBPkfALhd_MtD5-33" value="&lt;font color=&quot;#999999&quot;&gt;// Make a jump from the head block in the block&amp;nbsp;code&lt;br&gt;// cache&amp;nbsp;to the translated host code of this&amp;nbsp;region in&lt;br&gt;// the optimized&amp;nbsp;code cache. Also patch&amp;nbsp;previous&lt;br&gt;// built regions that have&amp;nbsp;direct branch to this region.&lt;/font&gt;" style="text;html=1;align=left;verticalAlign=middle;resizable=0;points=[];;autosize=1;" parent="1" vertex="1">
          <mxGeometry x="320" y="500" width="300" height="60" as="geometry"/>
        </mxCell>
        <mxCell id="G4Y1DqEBPkfALhd_MtD5-34" value="&lt;font color=&quot;#999999&quot;&gt;/// LLVM的优化及运行JIT在这里&lt;/font&gt;" style="text;html=1;align=left;verticalAlign=middle;resizable=0;points=[];;autosize=1;" parent="1" vertex="1">
          <mxGeometry x="160" y="440" width="180" height="20" as="geometry"/>
        </mxCell>
        <mxCell id="cZP0ndPGZlpRjoG04xzI-1" value="&lt;b&gt;CreateSession&lt;/b&gt;" style="rounded=0;whiteSpace=wrap;html=1;" vertex="1" parent="1">
          <mxGeometry x="160" y="220" width="100" height="20" as="geometry"/>
        </mxCell>
        <mxCell id="cZP0ndPGZlpRjoG04xzI-3" value="TraceBuilder *builder" style="rounded=0;whiteSpace=wrap;html=1;fillColor=#f8cecc;strokeColor=#b85450;" vertex="1" parent="1">
          <mxGeometry x="260" y="220" width="120" height="20" as="geometry"/>
        </mxCell>
        <mxCell id="cZP0ndPGZlpRjoG04xzI-5" value="遍历CFG生成Trace" style="rounded=0;whiteSpace=wrap;html=1;dashed=1;" vertex="1" parent="1">
          <mxGeometry x="160" y="180" width="120" height="20" as="geometry"/>
        </mxCell>
        <mxCell id="cZP0ndPGZlpRjoG04xzI-6" value="&lt;font color=&quot;#999999&quot;&gt;/// 初始化JIT&lt;/font&gt;" style="text;html=1;align=left;verticalAlign=middle;resizable=0;points=[];;autosize=1;" vertex="1" parent="1">
          <mxGeometry x="160" y="200" width="80" height="20" as="geometry"/>
        </mxCell>
        <mxCell id="cZP0ndPGZlpRjoG04xzI-7" value="&lt;b&gt;CreateFunction&lt;/b&gt;" style="rounded=0;whiteSpace=wrap;html=1;" vertex="1" parent="1">
          <mxGeometry x="160" y="260" width="100" height="20" as="geometry"/>
        </mxCell>
        <mxCell id="cZP0ndPGZlpRjoG04xzI-9" value="&lt;font color=&quot;#999999&quot;&gt;//&amp;nbsp;Prepare LLVM Function, initial BasicBlocks and variable declaration&lt;/font&gt;" style="text;html=1;align=left;verticalAlign=middle;resizable=0;points=[];;autosize=1;" vertex="1" parent="1">
          <mxGeometry x="160" y="240" width="380" height="20" as="geometry"/>
        </mxCell>
        <mxCell id="cZP0ndPGZlpRjoG04xzI-10" value="&lt;b&gt;Compile&lt;/b&gt;" style="rounded=0;whiteSpace=wrap;html=1;" vertex="1" parent="1">
          <mxGeometry x="160" y="460" width="60" height="20" as="geometry"/>
        </mxCell>
        <mxCell id="cZP0ndPGZlpRjoG04xzI-13" value="&lt;b&gt;DeleteSession&lt;/b&gt;" style="rounded=0;whiteSpace=wrap;html=1;" vertex="1" parent="1">
          <mxGeometry x="160" y="500" width="100" height="20" as="geometry"/>
        </mxCell>
      </root>
    </mxGraphModel>
  </diagram>
</mxfile>
